<svg width="50" height="50" viewBox="0 0 50 50" fill="none" xmlns="http://www.w3.org/2000/svg">
<rect width="50" height="50" rx="25" fill="white"/>
<path d="M22.9086 11.388C24.1673 11.388 25.266 11.644 26.2046 12.156C27.1646 12.668 27.9006 13.34 28.4126 14.172V11.644H33.8846V29.468C33.8846 31.1107 33.554 32.5933 32.8926 33.916C32.2526 35.26 31.2606 36.3267 29.9166 37.116C28.594 37.9053 26.9406 38.3 24.9566 38.3C22.3113 38.3 20.1673 37.6707 18.5246 36.412C16.882 35.1747 15.9433 33.4893 15.7086 31.356H21.1166C21.2873 32.0387 21.6926 32.572 22.3326 32.956C22.9726 33.3613 23.762 33.564 24.7006 33.564C25.8313 33.564 26.7273 33.2333 27.3886 32.572C28.0713 31.932 28.4126 30.8973 28.4126 29.468V26.94C27.8793 27.772 27.1433 28.4547 26.2046 28.988C25.266 29.5 24.1673 29.756 22.9086 29.756C21.4366 29.756 20.1033 29.3827 18.9086 28.636C17.714 27.868 16.7646 26.7907 16.0606 25.404C15.378 23.996 15.0366 22.3747 15.0366 20.54C15.0366 18.7053 15.378 17.0947 16.0606 15.708C16.7646 14.3213 17.714 13.2547 18.9086 12.508C20.1033 11.7613 21.4366 11.388 22.9086 11.388ZM28.4126 20.572C28.4126 19.2067 28.0286 18.1293 27.2606 17.34C26.514 16.5507 25.5966 16.156 24.5086 16.156C23.4206 16.156 22.4926 16.5507 21.7246 17.34C20.978 18.108 20.6046 19.1747 20.6046 20.54C20.6046 21.9053 20.978 22.9933 21.7246 23.804C22.4926 24.5933 23.4206 24.988 24.5086 24.988C25.5966 24.988 26.514 24.5933 27.2606 23.804C28.0286 23.0147 28.4126 21.9373 28.4126 20.572Z" fill="#F59A3A"/>
</svg>
