<svg width="125" height="33" viewBox="0 0 125 33" fill="none" xmlns="http://www.w3.org/2000/svg">
<path d="M30.2141 12.464C31.8781 12.464 33.1981 12.968 34.1741 13.976C35.1661 14.984 35.6621 16.384 35.6621 18.176V26H31.5821V18.728C31.5821 17.864 31.3501 17.2 30.8861 16.736C30.4381 16.256 29.8141 16.016 29.0141 16.016C28.2141 16.016 27.5821 16.256 27.1181 16.736C26.6701 17.2 26.4461 17.864 26.4461 18.728V26H22.3661V18.728C22.3661 17.864 22.1341 17.2 21.6701 16.736C21.2221 16.256 20.5981 16.016 19.7981 16.016C18.9981 16.016 18.3661 16.256 17.9021 16.736C17.4541 17.2 17.2301 17.864 17.2301 18.728V26H13.1261V12.608H17.2301V14.288C17.6461 13.728 18.1901 13.288 18.8621 12.968C19.5341 12.632 20.2941 12.464 21.1421 12.464C22.1501 12.464 23.0461 12.68 23.8301 13.112C24.6301 13.544 25.2541 14.16 25.7021 14.96C26.1661 14.224 26.7981 13.624 27.5981 13.16C28.3981 12.696 29.2701 12.464 30.2141 12.464ZM37.7164 19.28C37.7164 17.904 37.9724 16.696 38.4844 15.656C39.0124 14.616 39.7244 13.816 40.6204 13.256C41.5164 12.696 42.5164 12.416 43.6204 12.416C44.5644 12.416 45.3884 12.608 46.0924 12.992C46.8124 13.376 47.3644 13.88 47.7484 14.504V12.608H51.8524V26H47.7484V24.104C47.3484 24.728 46.7884 25.232 46.0684 25.616C45.3644 26 44.5404 26.192 43.5964 26.192C42.5084 26.192 41.5164 25.912 40.6204 25.352C39.7244 24.776 39.0124 23.968 38.4844 22.928C37.9724 21.872 37.7164 20.656 37.7164 19.28ZM47.7484 19.304C47.7484 18.28 47.4604 17.472 46.8844 16.88C46.3244 16.288 45.6364 15.992 44.8204 15.992C44.0044 15.992 43.3084 16.288 42.7324 16.88C42.1724 17.456 41.8924 18.256 41.8924 19.28C41.8924 20.304 42.1724 21.12 42.7324 21.728C43.3084 22.32 44.0044 22.616 44.8204 22.616C45.6364 22.616 46.3244 22.32 46.8844 21.728C47.4604 21.136 47.7484 20.328 47.7484 19.304ZM62.9814 12.464C64.5494 12.464 65.7974 12.976 66.7254 14C67.6694 15.008 68.1414 16.4 68.1414 18.176V26H64.0614V18.728C64.0614 17.832 63.8294 17.136 63.3654 16.64C62.9014 16.144 62.2774 15.896 61.4934 15.896C60.7094 15.896 60.0854 16.144 59.6214 16.64C59.1574 17.136 58.9254 17.832 58.9254 18.728V26H54.8214V12.608H58.9254V14.384C59.3414 13.792 59.9014 13.328 60.6054 12.992C61.3094 12.64 62.1014 12.464 62.9814 12.464ZM93.3784 26.192C92.0664 26.192 90.8824 25.912 89.8264 25.352C88.7864 24.792 87.9624 23.992 87.3544 22.952C86.7624 21.912 86.4664 20.696 86.4664 19.304C86.4664 17.928 86.7704 16.72 87.3784 15.68C87.9864 14.624 88.8184 13.816 89.8744 13.256C90.9304 12.696 92.1144 12.416 93.4264 12.416C94.7384 12.416 95.9224 12.696 96.9784 13.256C98.0344 13.816 98.8664 14.624 99.4744 15.68C100.082 16.72 100.386 17.928 100.386 19.304C100.386 20.68 100.074 21.896 99.4504 22.952C98.8424 23.992 98.0024 24.792 96.9304 25.352C95.8744 25.912 94.6904 26.192 93.3784 26.192ZM93.3784 22.64C94.1624 22.64 94.8264 22.352 95.3704 21.776C95.9304 21.2 96.2104 20.376 96.2104 19.304C96.2104 18.232 95.9384 17.408 95.3944 16.832C94.8664 16.256 94.2104 15.968 93.4264 15.968C92.6264 15.968 91.9624 16.256 91.4344 16.832C90.9064 17.392 90.6424 18.216 90.6424 19.304C90.6424 20.376 90.8984 21.2 91.4104 21.776C91.9384 22.352 92.5944 22.64 93.3784 22.64ZM108.012 26.192C106.844 26.192 105.804 25.992 104.892 25.592C103.98 25.192 103.26 24.648 102.732 23.96C102.204 23.256 101.908 22.472 101.844 21.608H105.9C105.948 22.072 106.164 22.448 106.548 22.736C106.932 23.024 107.404 23.168 107.964 23.168C108.476 23.168 108.868 23.072 109.14 22.88C109.428 22.672 109.572 22.408 109.572 22.088C109.572 21.704 109.372 21.424 108.972 21.248C108.572 21.056 107.924 20.848 107.028 20.624C106.068 20.4 105.268 20.168 104.628 19.928C103.988 19.672 103.436 19.28 102.972 18.752C102.508 18.208 102.276 17.48 102.276 16.568C102.276 15.8 102.484 15.104 102.9 14.48C103.332 13.84 103.956 13.336 104.772 12.968C105.604 12.6 106.588 12.416 107.724 12.416C109.404 12.416 110.724 12.832 111.684 13.664C112.66 14.496 113.22 15.6 113.364 16.976H109.572C109.508 16.512 109.3 16.144 108.948 15.872C108.612 15.6 108.164 15.464 107.604 15.464C107.124 15.464 106.756 15.56 106.5 15.752C106.244 15.928 106.116 16.176 106.116 16.496C106.116 16.88 106.316 17.168 106.716 17.36C107.132 17.552 107.772 17.744 108.636 17.936C109.628 18.192 110.436 18.448 111.06 18.704C111.684 18.944 112.228 19.344 112.692 19.904C113.172 20.448 113.42 21.184 113.436 22.112C113.436 22.896 113.212 23.6 112.764 24.224C112.332 24.832 111.7 25.312 110.868 25.664C110.052 26.016 109.1 26.192 108.012 26.192Z" fill="#323232"/>
<path d="M76.0813 12.416C77.0253 12.416 77.8493 12.608 78.5533 12.992C79.2733 13.376 79.8253 13.88 80.2093 14.504V12.608H84.3133V25.976C84.3133 27.208 84.0653 28.32 83.5693 29.312C83.0893 30.32 82.3453 31.12 81.3373 31.712C80.3453 32.304 79.1053 32.6 77.6173 32.6C75.6333 32.6 74.0253 32.128 72.7933 31.184C71.5613 30.256 70.8573 28.992 70.6813 27.392H74.7373C74.8653 27.904 75.1693 28.304 75.6493 28.592C76.1293 28.896 76.7213 29.048 77.4253 29.048C78.2733 29.048 78.9453 28.8 79.4413 28.304C79.9533 27.824 80.2093 27.048 80.2093 25.976V24.08C79.8093 24.704 79.2573 25.216 78.5533 25.616C77.8493 26 77.0253 26.192 76.0813 26.192C74.9773 26.192 73.9773 25.912 73.0813 25.352C72.1853 24.776 71.4733 23.968 70.9453 22.928C70.4333 21.872 70.1773 20.656 70.1773 19.28C70.1773 17.904 70.4333 16.696 70.9453 15.656C71.4733 14.616 72.1853 13.816 73.0813 13.256C73.9773 12.696 74.9773 12.416 76.0813 12.416ZM80.2093 19.304C80.2093 18.28 79.9213 17.472 79.3453 16.88C78.7853 16.288 78.0973 15.992 77.2813 15.992C76.4653 15.992 75.7693 16.288 75.1933 16.88C74.6333 17.456 74.3533 18.256 74.3533 19.28C74.3533 20.304 74.6333 21.12 75.1933 21.728C75.7693 22.32 76.4653 22.616 77.2813 22.616C78.0973 22.616 78.7853 22.32 79.3453 21.728C79.9213 21.136 80.2093 20.328 80.2093 19.304Z" fill="#F8B36B"/>
</svg>
